<svg xmlns="http://www.w3.org/2000/svg" xmlns:xlink="http://www.w3.org/1999/xlink" viewBox="0 0 963.14 968.99"><defs><style>.cls-1{fill:url(#linear-gradient);}.cls-2{fill:url(#linear-gradient-2);}.cls-3{fill:url(#linear-gradient-3);}.cls-4{fill:url(#linear-gradient-4);}.cls-5{fill:url(#linear-gradient-5);}.cls-6{fill:url(#linear-gradient-6);}</style><linearGradient id="linear-gradient" y1="480.22" x2="453.07" y2="480.22" gradientUnits="userSpaceOnUse"><stop offset="0" stop-color="#70c0c2"/><stop offset="1" stop-color="#4d4c9b"/></linearGradient><linearGradient id="linear-gradient-2" x1="268.65" y1="807.45" x2="940.27" y2="807.45" xlink:href="#linear-gradient"/><linearGradient id="linear-gradient-3" x1="395.51" y1="293.87" x2="821.59" y2="293.87" xlink:href="#linear-gradient"/><linearGradient id="linear-gradient-4" x1="169.33" y1="868.65" x2="451.92" y2="586.07" xlink:href="#linear-gradient"/><linearGradient id="linear-gradient-5" x1="531.39" y1="761.11" x2="992.25" y2="300.25" xlink:href="#linear-gradient"/><linearGradient id="linear-gradient-6" x1="166.73" y1="459.93" x2="553.13" y2="73.53" xlink:href="#linear-gradient"/></defs><g id="Layer_2" data-name="Layer 2"><g id="Layer_3" data-name="Layer 3"><path class="cls-1" d="M104.66,799.7l-18.3-32.09Q45.1,695.9,4,624A29.2,29.2,0,0,1,.34,610.09C.12,530,.34,450,0,369.91A10.26,10.26,0,0,1,5.86,359.7q168.57-98.28,337-196.82c2.56-1.5,4.68-3.29,8.3-1.17,33.19,19.35,66.52,38.45,99.82,57.59.51.33,1,.73,2.05,1.57-2.12,1.32-3.91,2.49-5.78,3.66-67.4,38.94-134.8,77.36-201.94,116.47-44.83,26.13-89.17,53-133.67,79.37a10.19,10.19,0,0,0-5.74,10.2V799.22Z"/><path class="cls-2" d="M269.2,645.91c18.3,10.39,35.06,20.16,52,30q144.72,83.64,289.36,167.58c6.29,3.66,10.32,2.16,15.55-.88q154.59-90.2,309.37-180.17l4.79-2.71c-1.9,3.66-3,5.86-4.28,8q-49.17,85.64-98.46,171.14a18,18,0,0,1-6.37,6.29q-105.75,61.34-211.6,122.54c-3.66,2.09-5.49,1.5-8.89-1.09a226.61,226.61,0,0,0-22.73-13.8Q431,861.57,274,770.39a9.13,9.13,0,0,1-5.31-9.18v-108A71.71,71.71,0,0,0,269.2,645.91Z"/><path class="cls-3" d="M395.77.42C457.39.42,519,1,580.66,0a90.45,90.45,0,0,1,48.85,13.32C691.17,49.08,753.33,84,815.35,119a10,10,0,0,1,6.19,10q-.25,195.8,0,391.52a9.93,9.93,0,0,1-5.86,10.1c-31.61,17.93-63.08,36.11-94.58,54.22l-5.24,2.82V191.6a12.33,12.33,0,0,0-7.31-12.44Q553.77,91.35,399.17,3.53l-3.66-2.16Z"/><path class="cls-4" d="M560.32,958.69h-37c-55.18,0-110.36,0-165.53-.48a29.67,29.67,0,0,1-13.91-3.84Q239.75,894.46,135.8,834.28a10.25,10.25,0,0,1-5.82-10q-.81-195.16-1.94-390.31c0-3-.48-5.67,3.18-7.79,33.34-19.07,66.52-38.39,99.78-57.63.52-.3,1.1-.44,2.38-1,0,2.49.22,4.65.22,6.77,0,77.72-.33,155.4,0,233.08.22,51.89,1.32,103.73,1.79,155.62a10.26,10.26,0,0,0,6,10.1Q398,863.55,554.65,953.93l5.89,3.4Z"/><path class="cls-5" d="M509.42,739.14l52-30q144.82-83.54,289.83-166.81c6.3-3.66,7-7.84,7-13.87q-.69-179-1.32-358v-5.49c2.16,3.44,3.66,5.56,4.83,7.72Q911.3,258,960.58,343.49a18.29,18.29,0,0,1,2.27,8.67q.23,122.25.29,244.54c0,4.2-1.42,5.48-5.38,7.31a217.49,217.49,0,0,0-23.3,12.77Q777.11,707,619.52,797.43a9.18,9.18,0,0,1-10.65,0c-31.06-18.29-62.2-36.08-93.41-54.12C513.85,742.18,512.2,741,509.42,739.14Z"/><path class="cls-6" d="M13.69,306.83c30.81-53.35,62.17-106.45,92.14-160.45a89.75,89.75,0,0,1,35.93-35.64C203.52,75.35,264.85,39,326.25,2.76a10,10,0,0,1,11.67-.18Q507.41,100.67,677,198.37a10,10,0,0,1,5.82,10.21c-.29,36.33-.26,72.71-.33,109v6l-6.62-3.66Q507.6,222.86,339.57,125.56a12.24,12.24,0,0,0-14.64,0q-153.35,90.12-306.85,180l-3.66,2.09Z"/></g></g></svg>