<svg xmlns="http://www.w3.org/2000/svg" xmlns:xlink="http://www.w3.org/1999/xlink" viewBox="0 0 7680 4324.51"><defs><style>.cls-1{fill:url(#linear-gradient);}.cls-2{fill:url(#linear-gradient-2);}.cls-3{fill:url(#linear-gradient-3);}.cls-4{fill:url(#linear-gradient-4);}.cls-5{fill:url(#linear-gradient-5);}.cls-6{fill:url(#linear-gradient-6);}.cls-7{fill:url(#linear-gradient-7);}.cls-8{isolation:isolate;font-size:499.68px;fill:#e6e6e6;font-family:AllertaStencil-Regular, Allerta Stencil;}</style><linearGradient id="linear-gradient" x1="3840" y1="71.98" x2="3840" y2="4271.82" gradientUnits="userSpaceOnUse"><stop offset="0" stop-color="#002a37"/><stop offset="1" stop-color="#290000"/></linearGradient><linearGradient id="linear-gradient-2" x1="6718.39" y1="6968.31" x2="7171.46" y2="6968.31" gradientUnits="userSpaceOnUse"><stop offset="0" stop-color="#70c0c2"/><stop offset="1" stop-color="#4d4c9b"/></linearGradient><linearGradient id="linear-gradient-3" x1="6987.04" y1="7295.54" x2="7658.67" y2="7295.54" xlink:href="#linear-gradient-2"/><linearGradient id="linear-gradient-4" x1="7113.91" y1="6781.96" x2="7539.98" y2="6781.96" xlink:href="#linear-gradient-2"/><linearGradient id="linear-gradient-5" x1="6887.72" y1="7356.75" x2="7170.31" y2="7074.16" xlink:href="#linear-gradient-2"/><linearGradient id="linear-gradient-6" x1="7249.78" y1="7249.21" x2="7710.64" y2="6788.35" xlink:href="#linear-gradient-2"/><linearGradient id="linear-gradient-7" x1="6885.12" y1="6948.03" x2="7271.52" y2="6561.63" xlink:href="#linear-gradient-2"/></defs><g id="Layer_2" data-name="Layer 2"><rect class="cls-1" width="7680" height="4324.51"/></g><g id="Layer_3" data-name="Layer 3"><path class="cls-2" d="M6823.05,7287.79l-18.3-32.09q-41.27-71.71-82.36-143.58a29.31,29.31,0,0,1-3.66-13.94c-.22-80.06,0-160.12-.29-240.18a10.25,10.25,0,0,1,5.81-10.21q168.59-98.28,337-196.82c2.56-1.5,4.68-3.29,8.31-1.17,33.18,19.36,66.52,38.46,99.81,57.6.52.32,1,.73,2.05,1.57-2.12,1.32-3.91,2.49-5.78,3.66-67.4,38.93-134.8,77.35-201.94,116.47-44.82,26.12-89.17,53-133.67,79.36a10.22,10.22,0,0,0-5.74,10.21v368.65Z" transform="translate(-3360 -5035.49)"/><path class="cls-3" d="M6987.6,7134c18.29,10.4,35,20.17,52,30q144.72,83.65,289.36,167.59c6.29,3.66,10.32,2.15,15.55-.88q154.59-90.19,309.37-180.17l4.8-2.71c-1.91,3.66-3,5.85-4.29,8.05q-49.17,85.62-98.46,171.13a18.13,18.13,0,0,1-6.37,6.3Q7443.8,7394.6,7338,7455.82c-3.66,2.08-5.49,1.5-8.89-1.1a225.65,225.65,0,0,0-22.72-13.79q-156.94-91.26-313.95-182.45a9.15,9.15,0,0,1-5.31-9.18v-108C6987.41,7139.42,6987.41,7137.3,6987.6,7134Z" transform="translate(-3360 -5035.49)"/><path class="cls-4" d="M7114.16,6488.51c61.62,0,123.28.62,184.89-.4a90.45,90.45,0,0,1,48.85,13.32c61.66,35.75,123.82,70.62,185.85,105.71a10,10,0,0,1,6.18,10q-.26,195.8,0,391.52a9.91,9.91,0,0,1-5.86,10.1c-31.61,17.93-63.08,36.12-94.58,54.23l-5.23,2.82V6679.7a12.34,12.34,0,0,0-7.32-12.44q-154.78-87.83-309.37-175.64l-3.66-2.16Z" transform="translate(-3360 -5035.49)"/><path class="cls-5" d="M7278.71,7446.78h-37c-55.18,0-110.35,0-165.53-.48a29.55,29.55,0,0,1-13.91-3.84q-104.18-59.9-208.12-120.09a10.24,10.24,0,0,1-5.82-10q-.81-195.18-1.94-390.31c0-3-.48-5.68,3.18-7.8,33.34-19.06,66.52-38.38,99.79-57.63.51-.29,1.09-.44,2.37-1,0,2.49.22,4.65.22,6.77,0,77.72-.33,155.4,0,233.08.22,51.89,1.32,103.74,1.8,155.62a10.23,10.23,0,0,0,6,10.1Q7116.42,7351.64,7273,7442l5.89,3.41Z" transform="translate(-3360 -5035.49)"/><path class="cls-6" d="M7227.81,7227.24l52-30q144.82-83.53,289.83-166.82c6.3-3.66,7-7.83,7-13.87q-.69-179-1.31-358V6653c2.15,3.43,3.65,5.56,4.83,7.72q49.57,85.43,98.86,170.87a18.18,18.18,0,0,1,2.27,8.68q.23,122.23.29,244.53c0,4.21-1.42,5.49-5.37,7.32a214.94,214.94,0,0,0-23.31,12.77q-157.35,90.22-314.94,180.65a9.2,9.2,0,0,1-10.64,0c-31.07-18.3-62.21-36.08-93.42-54.12C7232.24,7230.27,7230.59,7229.07,7227.81,7227.24Z" transform="translate(-3360 -5035.49)"/><path class="cls-7" d="M6732.08,6794.92c30.81-53.35,62.17-106.44,92.14-160.45a89.75,89.75,0,0,1,35.93-35.64c61.77-35.38,123.09-71.75,184.49-108a10,10,0,0,1,11.67-.18q169.48,98.1,339.12,195.8a9.94,9.94,0,0,1,5.82,10.2c-.29,36.34-.25,72.71-.33,109v6l-6.62-3.66Q7226,6710.94,7058,6613.65a12.27,12.27,0,0,0-14.64,0q-153.34,90.12-306.84,180l-3.66,2.08Z" transform="translate(-3360 -5035.49)"/><text class="cls-8" transform="translate(3232.24 2753.45)">FosX</text></g></svg>