<svg xmlns="http://www.w3.org/2000/svg" viewBox="0 0 263.28 264.82"><defs><style>.cls-1{fill:#70c0c2;}.cls-2{fill:#4d4c9b;}</style></defs><g id="Layer_2" data-name="Layer 2"><g id="Layer_2-2" data-name="Layer 2"><path class="cls-1" d="M28.61,218.55l-5-8.77c-7.51-13.07-15-26.13-22.5-39.24a8.13,8.13,0,0,1-1-3.81C0,144.85,0,123,0,101.09A2.79,2.79,0,0,1,1.58,98.3Q47.66,71.44,93.7,44.51c.69-.41,1.28-.9,2.27-.32,9.07,5.29,18.18,10.51,27.28,15.74.14.09.26.2.55.43-.57.36-1.06.68-1.57,1C103.84,72,85.41,82.5,67.07,93.19c-12.25,7.14-24.37,14.49-36.58,21.69a2.8,2.8,0,0,0-1.58,2.79q.06,49.44,0,98.89v1.86Z"/><path class="cls-1" d="M73.59,176.52c4.94,2.84,9.58,5.51,14.21,8.19q39.56,22.86,79.08,45.8c1.71,1,2.82.59,4.24-.24q42.27-24.65,84.56-49.24l1.3-.74c-.52,1-.82,1.6-1.16,2.2q-13.44,23.4-26.91,46.77a5.11,5.11,0,0,1-1.74,1.72q-28.9,16.76-57.84,33.49c-1,.57-1.49.41-2.43-.3a60.71,60.71,0,0,0-6.21-3.77q-42.89-24.94-85.79-49.86A2.5,2.5,0,0,1,73.44,208c.06-9.84,0-19.67,0-29.51C73.48,178,73.54,177.42,73.59,176.52Z"/><path class="cls-1" d="M108.17.11C125,.11,141.86.28,158.7,0a24.69,24.69,0,0,1,13.35,3.64c16.85,9.77,33.84,19.3,50.8,28.89a2.76,2.76,0,0,1,1.65,2.74q-.08,53.51,0,107a2.73,2.73,0,0,1-1.61,2.76c-8.64,4.9-17.23,9.87-25.85,14.82l-1.43.77v-2.09q0-53.09,0-106.17a3.35,3.35,0,0,0-2-3.4q-42.3-24-84.55-48l-1-.59Z"/><path class="cls-2" d="M153.15,262H143c-15.08,0-30.16,0-45.23-.13a8.06,8.06,0,0,1-3.8-1.05Q65.54,244.45,37.12,228a2.8,2.8,0,0,1-1.62-2.77q-.22-53.34-.53-106.67c0-.81-.13-1.55.86-2.13C45,111.25,54,106,63.11,100.71c.14-.08.3-.12.64-.27,0,.68.06,1.27.06,1.85,0,21.24-.08,42.47,0,63.7,0,14.18.36,28.35.49,42.53a2.8,2.8,0,0,0,1.63,2.76Q108.78,236,151.59,260.7l1.62.93Z"/><path class="cls-2" d="M139.24,202c4.94-2.86,9.56-5.54,14.2-8.21Q193,171,232.64,148.21c1.72-1,1.93-2.14,1.92-3.79q-.21-48.93-.37-97.85c0-.33,0-.67,0-1.5.59.94,1,1.52,1.32,2.11q13.53,23.34,27,46.69a5,5,0,0,1,.61,2.37q.07,33.41.09,66.83c0,1.15-.39,1.5-1.47,2a58.05,58.05,0,0,0-6.37,3.49q-43,24.66-86.08,49.37a2.49,2.49,0,0,1-2.9,0c-8.49-5-17-9.86-25.54-14.79C140.45,202.83,140,202.5,139.24,202Z"/><path class="cls-2" d="M3.76,83.85c8.42-14.58,17-29.09,25.17-43.81a24.67,24.67,0,0,1,9.82-9.74C55.64,20.59,72.39,10.65,89.17.75A2.75,2.75,0,0,1,92.37.7q46.3,26.81,92.68,53.51A2.74,2.74,0,0,1,186.64,57c-.08,9.93-.08,19.87-.1,29.8,0,.39,0,.78,0,1.63l-1.81-1q-46-26.53-91.93-53.12a3.35,3.35,0,0,0-4,0Q46.92,58.94,5,83.5l-1,.57Z"/></g></g></svg>