<svg xmlns="http://www.w3.org/2000/svg" xmlns:xlink="http://www.w3.org/1999/xlink" viewBox="0 0 1215.53 1423.81"><defs><style>.cls-1{fill:url(#linear-gradient);}.cls-2{fill:url(#linear-gradient-2);}.cls-3{fill:url(#linear-gradient-3);}.cls-4{fill:url(#linear-gradient-4);}.cls-5{fill:url(#linear-gradient-5);}.cls-6{fill:url(#linear-gradient-6);}.cls-7{isolation:isolate;font-size:499.68px;fill:#4d4d51;font-family:AllertaStencil-Regular, Allerta Stencil;}</style><linearGradient id="linear-gradient" x1="126.16" y1="480.22" x2="579.23" y2="480.22" gradientUnits="userSpaceOnUse"><stop offset="0" stop-color="#70c0c2"/><stop offset="1" stop-color="#4d4c9b"/></linearGradient><linearGradient id="linear-gradient-2" x1="394.81" y1="807.45" x2="1066.43" y2="807.45" xlink:href="#linear-gradient"/><linearGradient id="linear-gradient-3" x1="521.67" y1="293.87" x2="947.75" y2="293.87" xlink:href="#linear-gradient"/><linearGradient id="linear-gradient-4" x1="295.49" y1="868.65" x2="578.08" y2="586.07" xlink:href="#linear-gradient"/><linearGradient id="linear-gradient-5" x1="657.55" y1="761.11" x2="1118.4" y2="300.25" xlink:href="#linear-gradient"/><linearGradient id="linear-gradient-6" x1="292.88" y1="459.93" x2="679.28" y2="73.53" xlink:href="#linear-gradient"/></defs><g id="Layer_2" data-name="Layer 2"><g id="Layer_3" data-name="Layer 3"><path class="cls-1" d="M230.81,799.7l-18.29-32.09Q171.24,695.9,130.15,624a29.31,29.31,0,0,1-3.66-13.94c-.22-80.06,0-160.12-.29-240.18A10.25,10.25,0,0,1,132,359.7q168.57-98.28,337-196.82c2.56-1.5,4.69-3.29,8.31-1.17,33.19,19.35,66.52,38.45,99.82,57.59.51.33,1,.73,2.05,1.57-2.12,1.32-3.92,2.49-5.78,3.66-67.4,38.94-134.8,77.36-202,116.47-44.82,26.13-89.17,53-133.66,79.37a10.2,10.2,0,0,0-5.75,10.2V799.22Z"/><path class="cls-2" d="M395.36,645.91c18.3,10.39,35.05,20.16,52,30q144.71,83.64,289.35,167.58c6.3,3.66,10.32,2.16,15.55-.88q154.61-90.2,309.38-180.17l4.79-2.71c-1.9,3.66-3,5.86-4.28,8Q1013,753.39,963.68,838.89a18.07,18.07,0,0,1-6.36,6.29Q851.57,906.52,745.71,967.72c-3.65,2.09-5.48,1.5-8.89-1.09a225.34,225.34,0,0,0-22.72-13.8q-156.93-91.26-314-182.44a9.14,9.14,0,0,1-5.3-9.18v-108A71.71,71.71,0,0,0,395.36,645.91Z"/><path class="cls-3" d="M521.93.42C583.55.42,645.2,1,706.82,0a90.48,90.48,0,0,1,48.85,13.32C817.32,49.08,879.49,84,941.51,119a10,10,0,0,1,6.18,10q-.26,195.8,0,391.52a9.9,9.9,0,0,1-5.85,10.1c-31.61,17.93-63.08,36.11-94.59,54.22L842,587.73V191.6a12.32,12.32,0,0,0-7.32-12.44Q679.93,91.35,525.33,3.53l-3.66-2.16Z"/><path class="cls-4" d="M686.47,958.69h-37c-55.18,0-110.36,0-165.54-.48a29.63,29.63,0,0,1-13.9-3.84Q365.91,894.46,262,834.28a10.26,10.26,0,0,1-5.82-10q-.8-195.16-1.94-390.31c0-3-.47-5.67,3.19-7.79,33.33-19.07,66.52-38.39,99.78-57.63.51-.3,1.1-.44,2.38-1,0,2.49.22,4.65.22,6.77,0,77.72-.33,155.4,0,233.08.22,51.89,1.31,103.73,1.79,155.62a10.25,10.25,0,0,0,6,10.1L680.8,953.93l5.89,3.4Z"/><path class="cls-5" d="M635.58,739.14l52-30q144.83-83.54,289.83-166.81c6.29-3.66,7-7.84,7-13.87q-.71-179-1.32-358v-5.49c2.16,3.44,3.66,5.56,4.83,7.72q49.57,85.44,98.87,170.88a18.4,18.4,0,0,1,2.27,8.67q.21,122.25.29,244.54c0,4.2-1.43,5.48-5.38,7.31a217.63,217.63,0,0,0-23.31,12.77Q903.28,707,745.68,797.43a9.18,9.18,0,0,1-10.65,0c-31.07-18.29-62.2-36.08-93.42-54.12C640,742.18,638.36,741,635.58,739.14Z"/><path class="cls-6" d="M139.85,306.83C170.66,253.48,202,200.38,232,146.38a89.84,89.84,0,0,1,35.94-35.64C329.68,75.35,391,39,452.4,2.76a10,10,0,0,1,11.68-.18Q633.57,100.67,803.2,198.37A10,10,0,0,1,809,208.58c-.3,36.33-.26,72.71-.33,109v6l-6.63-3.66Q633.75,222.86,465.72,125.56a12.23,12.23,0,0,0-14.63,0q-153.36,90.12-306.85,180l-3.66,2.09Z"/><text class="cls-7" transform="translate(0 1300.84)">FosX</text></g></g></svg>