<svg xmlns="http://www.w3.org/2000/svg" viewBox="0 0 397.81 174.49"><defs><style>.cls-1{fill:#70bfc2;}.cls-2{fill:#4d4b99;}.cls-3{fill:#687076;}</style></defs><g id="Layer_2" data-name="Layer 2"><g id="Layer_2-2" data-name="Layer 2"><path class="cls-1" d="M18.85,144q-1.65-2.9-3.32-5.77C10.58,129.61,5.61,121,.7,112.37a5.36,5.36,0,0,1-.65-2.51C0,95.44,0,81,0,66.61a1.85,1.85,0,0,1,1-1.84q30.36-17.7,60.7-35.45c.45-.26.84-.58,1.49-.2,6,3.48,12,6.92,18,10.37a3.75,3.75,0,0,1,.36.28l-1,.65c-12.12,7-24.26,13.94-36.35,21C36.12,66.1,28.13,71,20.09,75.69a1.85,1.85,0,0,0-1,1.84q0,32.58,0,65.16v1.23Z"/><path class="cls-1" d="M48.49,116.31l9.36,5.39Q83.92,136.78,110,151.88a2.38,2.38,0,0,0,2.79-.15q27.85-16.24,55.72-32.45l.85-.48c-.34.64-.54,1-.76,1.44q-8.87,15.42-17.73,30.82a3.28,3.28,0,0,1-1.15,1.13q-19.05,11-38.11,22.07c-.65.38-1,.27-1.6-.2a38.35,38.35,0,0,0-4.09-2.48q-28.26-16.44-56.53-32.85a1.67,1.67,0,0,1-1-1.66c0-6.48,0-13,0-19.44C48.42,117.26,48.45,116.9,48.49,116.31Z"/><path class="cls-1" d="M71.27.07c11.1,0,22.2.11,33.3-.07a16.21,16.21,0,0,1,8.79,2.4c11.11,6.43,22.3,12.72,33.47,19a1.79,1.79,0,0,1,1.09,1.8q0,35.27,0,70.52a1.82,1.82,0,0,1-1.06,1.82c-5.7,3.22-11.36,6.5-17,9.76l-.94.51v-1.38q0-35,0-70a2.21,2.21,0,0,0-1.33-2.23Q99.71,16.49,71.87.64L71.22.25Z"/><path class="cls-2" d="M100.91,172.61H94.25c-9.94,0-19.87,0-29.81-.08a5.36,5.36,0,0,1-2.5-.69q-18.75-10.77-37.48-21.58a1.85,1.85,0,0,1-1.07-1.83q-.15-35.13-.35-70.28c0-.53-.09-1,.57-1.4,6-3.43,12-6.92,18-10.38.09,0,.2-.08.43-.18,0,.45,0,.83,0,1.22,0,14-.06,28,0,42,0,9.34.24,18.68.32,28a1.85,1.85,0,0,0,1.08,1.82q28.23,16.26,56.44,32.56l1.06.61Z"/><path class="cls-2" d="M91.74,133.1l9.36-5.41q26.09-15,52.19-30a2.38,2.38,0,0,0,1.26-2.5q-.13-32.23-.24-64.47c0-.22,0-.45,0-1,.39.62.64,1,.87,1.39Q164.11,46.47,173,61.85a3.39,3.39,0,0,1,.41,1.56c0,14.68,0,29.36.05,44,0,.75-.25,1-1,1.28a38.92,38.92,0,0,0-4.19,2.31q-28.37,16.24-56.72,32.52a1.64,1.64,0,0,1-1.91,0c-5.6-3.27-11.22-6.5-16.83-9.75C92.54,133.64,92.24,133.43,91.74,133.1Z"/><path class="cls-2" d="M2.47,55.25C8,45.64,13.67,36.08,19.06,26.38A16.37,16.37,0,0,1,25.53,20C36.66,13.57,47.7,7,58.76.5a1.8,1.8,0,0,1,2.1,0q30.51,17.67,61.07,35.26a1.82,1.82,0,0,1,1,1.83c-.06,6.54,0,13.08-.07,19.63,0,.26,0,.51,0,1.07l-1.19-.69q-30.28-17.49-60.57-35a2.21,2.21,0,0,0-2.6,0Q30.9,38.84,3.26,55c-.21.13-.44.25-.66.37Z"/><path class="cls-3" d="M193.69,54.64h10.72V119.4H193.69Zm40.51,0v8H208v-8Zm-2.73,35.59H208V83h23.46Z"/><path class="cls-3" d="M243.6,94.62a29.49,29.49,0,0,1,1.49-9.49,23.81,23.81,0,0,1,4.26-7.68A21.76,21.76,0,0,1,256,72.13a22.76,22.76,0,0,1,8.52-2.46v8.17a10.7,10.7,0,0,0-7,5.54,21.59,21.59,0,0,0-2.63,11,27.61,27.61,0,0,0,.66,6.15,20.13,20.13,0,0,0,1.88,5.19,12.4,12.4,0,0,0,3,3.77,8.18,8.18,0,0,0,4.08,1.85v8.44a21.29,21.29,0,0,1-15.29-7.82,23.88,23.88,0,0,1-4.17-7.83A30.5,30.5,0,0,1,243.6,94.62Zm24.51-25a21.22,21.22,0,0,1,8.79,2.33,20.4,20.4,0,0,1,6.64,5.45,25.66,25.66,0,0,1,4.17,7.86,30,30,0,0,1,1.49,9.58,29,29,0,0,1-1.53,9.53,24.78,24.78,0,0,1-4.27,7.74,20.83,20.83,0,0,1-6.67,5.31,22.53,22.53,0,0,1-8.62,2.38v-8.44a11.12,11.12,0,0,0,7.17-5.54,20.82,20.82,0,0,0,2.76-11,27.72,27.72,0,0,0-.65-6.11,18.69,18.69,0,0,0-2-5.14,13.57,13.57,0,0,0-3.17-3.78,9.24,9.24,0,0,0-4.13-1.93Z"/><path class="cls-3" d="M301.86,84a14.3,14.3,0,0,1,1.23-6,13.24,13.24,0,0,1,3.43-4.57,17.16,17.16,0,0,1,5-3,20.19,20.19,0,0,1,5.76-1.37v8.79a6.17,6.17,0,0,0-3.56,1.85,5.65,5.65,0,0,0-1.28,4A4.43,4.43,0,0,0,313.76,87a12.81,12.81,0,0,0,3.48,2.24v9.41c-1-.3-2-.63-3-1s-2-.81-3-1.28a23.73,23.73,0,0,1-7-5.18A10.68,10.68,0,0,1,301.86,84Zm4.66,24.34a24.47,24.47,0,0,0,4.17,2.29,15.41,15.41,0,0,0,6.11,1h.44v8.17c-1.47,0-2.82,0-4.05-.13a19.63,19.63,0,0,1-3.64-.61,21,21,0,0,1-3.65-1.37,27,27,0,0,1-3.87-2.28Zm24.69-28a21.23,21.23,0,0,0-5.06-1.84,32.75,32.75,0,0,0-5.31-.79V69a32.78,32.78,0,0,1,7.29,1.09,23.77,23.77,0,0,1,6.5,3ZM320.84,90.67c1.76.59,3.54,1.23,5.36,1.93a23,23,0,0,1,5,2.64,13.23,13.23,0,0,1,3.69,3.91A10.83,10.83,0,0,1,336.3,105a13.61,13.61,0,0,1-1.23,6,14,14,0,0,1-3.29,4.39,15.23,15.23,0,0,1-4.88,2.9,25.2,25.2,0,0,1-6.06,1.41v-8.35a9.66,9.66,0,0,0,4.61-1.89,4.53,4.53,0,0,0,1.63-3.65,4.1,4.1,0,0,0-1.8-3.55,19.35,19.35,0,0,0-4.44-2.25Z"/><path class="cls-3" d="M349.05,54.64h12L371.63,78.9V99l-9.32,20.38H350.1L366.53,88Zm48.76,0L380.33,88l16.43,31.45H384.55l-9.32-22.23v-20l10.55-22.5Z"/></g></g></svg>